<?xml version="1.0" encoding="UTF-8"?>
<svg version="1.1" xmlns="http://www.w3.org/2000/svg" width="928" height="1148">
<path d="M0 0 C306.24 0 612.48 0 928 0 C928 378.84 928 757.68 928 1148 C621.76 1148 315.52 1148 0 1148 C0 769.16 0 390.32 0 0 Z " fill="#FEFEFE" transform="translate(0,0)"/>
<path d="M0 0 C0.66 0 1.32 0 2 0 C3.26171875 1.74975586 3.26171875 1.74975586 4.6875 4.21484375 C5.21601563 5.11984619 5.74453125 6.02484863 6.2890625 6.95727539 C6.85367188 7.94074951 7.41828125 8.92422363 8 9.9375 C8.58523438 10.94224365 9.17046875 11.9469873 9.7734375 12.98217773 C11.52170905 15.98463372 13.26127624 18.9920079 15 22 C22.44520201 34.80764567 30.15548347 47.43309758 38 60 C38.59474121 60.95326172 39.18948242 61.90652344 39.80224609 62.88867188 C43.56152211 68.91231884 47.32616989 74.93259307 51.09277344 80.95166016 C54.8551994 86.96518429 58.61397892 92.98098907 62.37231445 98.99707031 C65.50583853 104.01234194 68.64238154 109.02567544 71.78515625 114.03515625 C79.66746243 126.60693573 87.44804888 139.23548708 95.13720703 151.92626953 C97.45864319 155.75679132 99.78377772 159.58506098 102.10925293 163.41313171 C103.89496887 166.35285501 105.67998795 169.29299642 107.46337891 172.23413086 C111.09844434 178.2281403 114.74191479 184.21675421 118.40234375 190.1953125 C126.75969154 203.85886662 134.87374796 217.63043989 142.671875 231.62304688 C144.44830943 234.80234203 146.25239978 237.96474306 148.0625 241.125 C148.99449219 242.75695312 148.99449219 242.75695312 149.9453125 244.421875 C151.47027597 247.08489346 153.01083784 249.73851588 154.5546875 252.390625 C163.47192255 267.7727395 171.77708939 283.46482826 180.0513916 299.19848633 C181.39179153 301.74405603 182.73924837 304.28587818 184.0859375 306.828125 C187.09714545 312.5317869 190.05907427 318.25981004 193 324 C193.33495483 324.653172 193.66990967 325.30634399 194.01501465 325.97930908 C206.14123275 349.64745602 217.59652095 373.52274373 228 398 C228.31926453 398.75025452 228.63852905 399.50050903 228.96746826 400.27349854 C256.79182115 465.81005272 277.3968716 531.30792075 265 603 C264.85578613 603.84320801 264.71157227 604.68641602 264.56298828 605.55517578 C260.91615296 625.74317203 252.81323514 645.55856155 244 664 C243.69271973 664.66080566 243.38543945 665.32161133 243.06884766 666.00244141 C226.90800287 700.72307307 200.56900126 733.87129808 170 757 C168.8028477 757.93681326 167.60627509 758.87436758 166.41015625 759.8125 C156.72613857 767.32782112 146.64504522 773.92857429 136 780 C135.18934082 780.46293457 134.37868164 780.92586914 133.54345703 781.40283203 C119.8826085 789.1015193 105.81525232 794.90592227 91 800 C89.78957031 800.41894531 88.57914063 800.83789062 87.33203125 801.26953125 C24.50714661 821.66933209 -46.14202362 815.92379103 -105 786 C-120.61089659 777.67984022 -135.17762086 768.02764454 -149 757 C-149.98097656 756.2265625 -150.96195312 755.453125 -151.97265625 754.65625 C-159.30250788 748.67887422 -166.04167299 742.1643476 -172.75 735.5 C-173.62527344 734.6339917 -174.50054687 733.7679834 -175.40234375 732.87573242 C-181.35681091 726.8925514 -186.75448559 720.6090839 -192 714 C-192.86868466 712.93919668 -193.73823719 711.8791022 -194.609375 710.8203125 C-229.92874508 666.34884288 -248.19296953 610.44537234 -248.4375 554.0625 C-248.44403595 553.1704184 -248.4505719 552.27833679 -248.45730591 551.35922241 C-248.75375264 484.20978037 -219.32215121 416.61728485 -193 356 C-192.32300049 354.43765625 -192.32300049 354.43765625 -191.63232422 352.84375 C-182.86636221 332.68728646 -173.48257132 312.82666311 -164 293 C-163.64450073 292.25635193 -163.28900146 291.51270386 -162.92272949 290.746521 C-155.32323301 274.85844101 -147.64006231 259.0414808 -139.37109375 243.48828125 C-137.19912162 239.40011814 -135.11449546 235.27441475 -133.0625 231.125 C-125.47572458 215.84577832 -117.53425511 200.78504679 -109.06542969 185.97607422 C-105.08983323 178.99938441 -101.27363613 171.94612703 -97.51184082 164.85253906 C-91.96414666 154.39202894 -86.224547 144.07349341 -80.20385742 133.8762207 C-75.9858123 126.72559028 -71.90527774 119.50793656 -67.875 112.25 C-62.27064329 102.17846998 -56.45077209 92.26275153 -50.46337891 82.41503906 C-48.98017985 79.96729047 -47.50957907 77.51240746 -46.04296875 75.0546875 C-37.58705699 60.884684 -28.92027831 46.85091352 -20.16015625 32.8671875 C-19.51369141 31.8349707 -18.86722656 30.80275391 -18.20117188 29.73925781 C-16.91306715 27.68331889 -15.6240234 25.62796795 -14.33398438 23.57324219 C-11.54814675 19.12554865 -8.78354462 14.67129364 -6.12109375 10.1484375 C-5.7024707 9.4373584 -5.28384766 8.7262793 -4.85253906 7.99365234 C-4.09877341 6.70378429 -3.35156418 5.41005277 -2.61230469 4.11181641 C-1.79479501 2.70879303 -0.90521623 1.34810246 0 0 Z " fill="#26A18F" transform="translate(463,175)"/>
<path d="M0 0 C5.5115375 4.31523479 9.3294503 9.23739065 10.32617188 16.31665039 C10.53225427 19.00170625 10.67689636 21.68548942 10.8125 24.375 C12.84857576 53.35803476 22.50858109 82.96459551 42 105 C42.74378906 105.85207031 43.48757813 106.70414063 44.25390625 107.58203125 C46.47175347 110.08508386 48.7242878 112.54955304 51 115 C51.82564453 115.90685547 51.82564453 115.90685547 52.66796875 116.83203125 C73.42483056 138.71642629 102.07740637 149.20700869 131.40527344 152.78588867 C139.38638524 153.87555757 145.72876139 156.66047099 150.74609375 163.0859375 C154.57524578 168.93106054 156.06075225 175.05796584 155 182 C152.41502144 190.51931106 147.55603442 195.4006747 140 200 C117.24032759 207.58655747 84.7954758 193.58514758 64.5 183.5625 C56.60141283 179.54309658 49.12728821 175.28898189 42 170 C40.96101563 169.24332031 39.92203125 168.48664063 38.8515625 167.70703125 C30.71733678 161.68122981 23.31507396 154.98529604 16 148 C15.34515625 147.39800781 14.6903125 146.79601562 14.015625 146.17578125 C-17.67800979 116.21775027 -35.12578537 69.51700264 -37.328125 26.70703125 C-37.3748698 25.03410995 -37.4117532 23.36087619 -37.4375 21.6875 C-37.45965576 20.93001465 -37.48181152 20.1725293 -37.50463867 19.39208984 C-37.4795923 12.96447439 -35.45020682 7.96941732 -31.359375 3.01171875 C-21.71691337 -4.92224846 -10.93175089 -6.78247318 0 0 Z " fill="#FCFEFE" transform="translate(312,718)"/>
<path d="M0 0 C2.12856015 3.19284023 2.57414391 5.14881059 3.25390625 8.8828125 C3.46853516 10.05070313 3.68316406 11.21859375 3.90429688 12.421875 C4.12150391 13.64390625 4.33871094 14.8659375 4.5625 16.125 C4.78357422 17.32382812 5.00464844 18.52265625 5.23242188 19.7578125 C7.48967996 32.19660024 8.23366283 44.1259235 8.25 56.75 C8.25233643 57.56971283 8.25467285 58.38942566 8.25708008 59.23397827 C8.27086257 72.03994719 7.50906112 84.40988973 5 97 C4.67 97 4.34 97 4 97 C3.88639711 91.52181634 4.03688803 86.12922222 4.49609375 80.66796875 C5.04078546 73.28727502 5.15256858 65.95487026 5.13037109 58.55883789 C5.12499528 56.43563737 5.13036554 54.31264745 5.13671875 52.18945312 C5.53630372 37.8885766 5.53630372 37.8885766 3 24 C2.93259135 22.43881572 2.91485544 20.8749748 2.9375 19.3125 C2.94652344 18.50425781 2.95554687 17.69601562 2.96484375 16.86328125 C2.98224609 15.94095703 2.98224609 15.94095703 3 15 C2.34 15 1.68 15 1 15 C0.63536268 13.25215171 0.2836922 11.50159498 -0.0625 9.75 C-0.25972656 8.77546875 -0.45695313 7.8009375 -0.66015625 6.796875 C-0.98397535 4.131881 -0.85503199 2.51128277 0 0 Z " fill="#469D90" transform="translate(724,671)"/>
<path d="M0 0 C0.66 0.33 1.32 0.66 2 1 C0.78078066 9.18953093 -1.36485218 16.76646685 -4.125 24.5625 C-4.52388428 25.69929199 -4.92276855 26.83608398 -5.33374023 28.00732422 C-8.74689924 37.5809344 -12.6196304 46.83420388 -17 56 C-17.30728027 56.66080566 -17.61456055 57.32161133 -17.93115234 58.00244141 C-21.88249533 66.49167115 -26.39512881 74.50612605 -31.375 82.4375 C-31.89932617 83.27337646 -32.42365234 84.10925293 -32.96386719 84.97045898 C-36.74183713 90.87091857 -36.74183713 90.87091857 -39 92 C-38.44126086 88.05390481 -37.29135624 85.55675198 -35 82.3125 C-32.83977108 79.25134986 -32.83977108 79.25134986 -31 76 C-30.34 76 -29.68 76 -29 76 C-29 74.68 -29 73.36 -29 72 C-28.34 72 -27.68 72 -27 72 C-26.896875 71.46375 -26.79375 70.9275 -26.6875 70.375 C-25.44512149 66.08314696 -23.11485606 62.22067036 -21.0625 58.265625 C-17.66081379 51.67175015 -14.46622979 45.34483314 -12.5859375 38.12890625 C-11.70572663 34.93080676 -10.37575106 32.01354994 -9 29 C-8.34 29 -7.68 29 -7 29 C-6.9175 27.72125 -6.835 26.4425 -6.75 25.125 C-6.25246254 20.51737049 -4.8138659 16.80293665 -2.98828125 12.57421875 C-1.42302521 8.49712891 -0.69514218 4.29890557 0 0 Z " fill="#459C90" transform="translate(724,783)"/>
<path d="M0 0 C0.33 0 0.66 0 1 0 C1.03758423 1.3912207 1.03758423 1.3912207 1.07592773 2.81054688 C1.17163362 6.28460539 1.2708291 9.7585292 1.37231445 13.23242188 C1.41535863 14.72977874 1.45705201 16.22717513 1.49731445 17.72460938 C1.55576498 19.88944356 1.61923453 22.05408434 1.68359375 24.21875 C1.72025146 25.51748047 1.75690918 26.81621094 1.79467773 28.15429688 C1.93992574 30.87480418 2.16026709 33.46466709 2.51806641 36.15429688 C2.91066905 39.28716255 3.09550287 42.16801128 3.02734375 45.3125 C3.01509766 46.24320313 3.00285156 47.17390625 2.99023438 48.1328125 C2.95507673 50.04434664 2.91601374 51.95581295 2.87304688 53.8671875 C2.80480794 59.66348256 3.40791961 64.43070005 5 70 C5.29818166 71.78428057 5.55707863 73.57629191 5.75 75.375 C5.84796875 76.20773437 5.9459375 77.04046875 6.046875 77.8984375 C6 80 6 80 4 82 C3.35142217 78.16712585 2.70663775 74.33362262 2.0625 70.5 C1.78889648 68.88351562 1.78889648 68.88351562 1.50976562 67.234375 C1.33251953 66.17734375 1.15527344 65.1203125 0.97265625 64.03125 C0.81031494 63.06767578 0.64797363 62.10410156 0.48071289 61.11132812 C-0.61650695 54.00976912 -1.14937782 47.23817709 -1.1328125 40.05859375 C-1.13376923 39.13208511 -1.13472595 38.20557648 -1.13571167 37.25099182 C-1.13638846 35.30380179 -1.13456935 33.35660945 -1.13037109 31.40942383 C-1.12500961 28.44281924 -1.13033633 25.4763656 -1.13671875 22.50976562 C-1.136058 20.60937467 -1.1347769 18.70898381 -1.1328125 16.80859375 C-1.13483673 15.92924667 -1.13686096 15.0498996 -1.13894653 14.14390564 C-1.12073823 9.3232146 -0.80967132 4.75390434 0 0 Z " fill="#499F92" transform="translate(216,701)"/>
<path d="M0 0 C0.99 0 1.98 0 3 0 C3.433125 1.2065625 3.433125 1.2065625 3.875 2.4375 C4.73262568 5.1326468 4.73262568 5.1326468 7 6 C7.48657227 8.57617188 7.48657227 8.57617188 7.81640625 11.96875 C7.94080078 13.17917969 8.06519531 14.38960937 8.19335938 15.63671875 C8.31517578 16.91160156 8.43699219 18.18648437 8.5625 19.5 C8.81002498 22.0107919 9.06112779 24.52123456 9.31640625 27.03125 C9.42412354 28.15080078 9.53184082 29.27035156 9.64282227 30.42382812 C9.72586074 32.92696001 9.72586074 32.92696001 11 34 C11.32446337 37.10042773 11.51334441 40.2020725 11.71875 43.3125 C11.70607799 45.91596752 11.70607799 45.91596752 13 47 C13.397493 49.34723966 13.74368723 51.70328548 14.0625 54.0625 C14.23910156 55.35285156 14.41570312 56.64320313 14.59765625 57.97265625 C14.73042969 58.97167969 14.86320312 59.97070312 15 61 C15.66 61 16.32 61 17 61 C17.66 64.3 18.32 67.6 19 71 C19.66 71 20.32 71 21 71 C21.70180531 72.4096347 22.38593958 73.82807641 23.0625 75.25 C23.44535156 76.03890625 23.82820313 76.8278125 24.22265625 77.640625 C25.10224325 80.31032626 24.77788565 81.37312137 24 84 C13.13769438 62.87885018 6.72652327 41.09906244 5.5625 17.3125 C5.24458845 11.52245137 3.98413436 7.94247254 1 3 C0.67 2.01 0.34 1.02 0 0 Z " fill="#419C8E" transform="translate(316,721)"/>
<path d="M0 0 C0.66 0 1.32 0 2 0 C1.44394144 3.55167449 0.59709967 6.04542571 -1.37109375 9.046875 C-1.85763428 9.80009033 -2.3441748 10.55330566 -2.84545898 11.3293457 C-3.63351929 12.52756958 -3.63351929 12.52756958 -4.4375 13.75 C-5.54374948 15.46610707 -6.6478814 17.18358083 -7.75 18.90234375 C-8.30171875 19.7619873 -8.8534375 20.62163086 -9.421875 21.50732422 C-11.67335001 25.063568 -13.81858916 28.6761274 -15.9375 32.3125 C-16.32800537 32.98128174 -16.71851074 33.65006348 -17.12084961 34.33911133 C-17.94963221 35.76047431 -18.77764784 37.18228473 -19.60498047 38.60449219 C-22.39134957 43.38920582 -25.19394801 48.1643108 -28 52.9375 C-28.56452881 53.90405518 -29.12905762 54.87061035 -29.71069336 55.86645508 C-30.50358765 57.21453247 -30.50358765 57.21453247 -31.3125 58.58984375 C-31.78300781 59.39284912 -32.25351562 60.19585449 -32.73828125 61.02319336 C-34 63 -34 63 -36 65 C-36 63.35 -36 61.7 -36 60 C-35.34 60 -34.68 60 -34 60 C-34 59.01 -34 58.02 -34 57 C-33.34 57 -32.68 57 -32 57 C-32 55.68 -32 54.36 -32 53 C-31.34 53 -30.68 53 -30 53 C-29.67 51.35 -29.34 49.7 -29 48 C-28.34 48 -27.68 48 -27 48 C-26.34 45.36 -25.68 42.72 -25 40 C-24.34 40 -23.68 40 -23 40 C-22.87625 39.401875 -22.7525 38.80375 -22.625 38.1875 C-22 36 -22 36 -20 33 C-19.34 33 -18.68 33 -18 33 C-18 31.68 -18 30.36 -18 29 C-17.34 29 -16.68 29 -16 29 C-15.896875 28.443125 -15.79375 27.88625 -15.6875 27.3125 C-14.85821592 24.5230899 -13.65700944 22.3860936 -12 20 C-11.34 20 -10.68 20 -10 20 C-9.67 18.35 -9.34 16.7 -9 15 C-8.34 15 -7.68 15 -7 15 C-6.67 12.69 -6.34 10.38 -6 8 C-5.01 7.67 -4.02 7.34 -3 7 C-2.67 5.35 -2.34 3.7 -2 2 C-1.34 2 -0.68 2 0 2 C0 1.34 0 0.68 0 0 Z " fill="#DAFAF8" transform="translate(435,216)"/>
<path d="M0 0 C0.66 0 1.32 0 2 0 C2.66 1.65 3.32 3.3 4 5 C2.35 5 0.7 5 -1 5 C-1.17015625 5.59167969 -1.3403125 6.18335938 -1.515625 6.79296875 C-3.0169967 11.68839882 -4.55146352 15.12039646 -8 19 C-8.53625 19.928125 -9.0725 20.85625 -9.625 21.8125 C-10.07875 22.534375 -10.5325 23.25625 -11 24 C-11.66 24 -12.32 24 -13 24 C-13.66 26.31 -14.32 28.62 -15 31 C-15.66 31 -16.32 31 -17 31 C-17.28875 32.11375 -17.5775 33.2275 -17.875 34.375 C-19 38 -19 38 -21 40 C-21.99 39.67 -22.98 39.34 -24 39 C-23.59273682 38.351521 -23.18547363 37.70304199 -22.76586914 37.03491211 C-20.86322023 34.00339575 -18.96267336 30.97056866 -17.0625 27.9375 C-16.37969971 26.84888672 -15.69689941 25.76027344 -14.9934082 24.63867188 C-10.75469335 17.86314661 -6.56994463 11.06315087 -2.61547852 4.11694336 C-1.79684057 2.71225131 -0.90633662 1.349771 0 0 Z " fill="#429B8E" transform="translate(463,175)"/>
<path d="M0 0 C2.97 0 5.94 0 9 0 C9 0.66 9 1.32 9 2 C10.03930664 2.11593506 11.07861328 2.23187012 12.14941406 2.35131836 C16.01121483 2.78282928 19.87260697 3.21790622 23.73388672 3.65405273 C25.40402498 3.84219853 27.07427199 4.02938156 28.74462891 4.21557617 C31.14775474 4.48362263 33.55046614 4.75514721 35.953125 5.02734375 C37.0705307 5.1508445 37.0705307 5.1508445 38.21051025 5.27684021 C43.56015949 5.88791553 43.56015949 5.88791553 46.12304688 6.54101562 C48.77435984 7.18935959 51.35275259 7.22288857 54.078125 7.31640625 C55.23828125 7.35830078 56.3984375 7.40019531 57.59375 7.44335938 C58.8003125 7.48267578 60.006875 7.52199219 61.25 7.5625 C63.08304687 7.62727539 63.08304687 7.62727539 64.953125 7.69335938 C67.9686392 7.79937355 70.98423448 7.90143936 74 8 C74 8.33 74 8.66 74 9 C59.06184666 9.48506555 44.50364729 9.02595819 29.6875 7.1875 C29.00583771 7.10463745 28.32417542 7.0217749 27.62185669 6.93640137 C18.28007571 5.78306377 9.16780775 4.11523654 0 2 C0 1.34 0 0.68 0 0 Z " fill="#59AB9F" transform="translate(412,979)"/>
<path d="M0 0 C1.14044374 3.16789928 0.80467097 5.58131258 0.26443481 8.8508606 C-0.3057606 13.48500621 -0.11994609 18.17813563 -0.09765625 22.83984375 C-0.0962413 23.96193741 -0.09482635 25.08403107 -0.09336853 26.24012756 C-0.087794 29.80594608 -0.07524616 33.37170062 -0.0625 36.9375 C-0.05748171 39.3626293 -0.05291938 41.78775959 -0.04882812 44.21289062 C-0.03783291 50.14194872 -0.0211202 56.07096979 0 62 C-1.97333181 58.33810957 -2.37261536 55.51548156 -2.609375 51.3359375 C-2.64649597 50.68217133 -2.68361694 50.02840515 -2.72186279 49.35482788 C-3.09722269 42.18604657 -3.22110657 35.01413613 -3.24023438 27.83642578 C-3.2500864 25.60543481 -3.2813343 23.37531383 -3.3125 21.14453125 C-3.36665693 13.57326609 -3.03239044 7.0702577 0 0 Z " fill="#D7F8F5" transform="translate(216,697)"/>
<path d="M0 0 C0.99 0 1.98 0 3 0 C1.54601935 4.50318578 -0.97897282 7.63499832 -4.0625 11.125 C-5.05432421 12.26871781 -6.04519385 13.41326404 -7.03515625 14.55859375 C-7.53160645 15.13077637 -8.02805664 15.70295898 -8.53955078 16.29248047 C-11.48938435 19.74134974 -14.29780634 23.30588553 -17.125 26.85546875 C-19 29 -19 29 -22 31 C-21.67 29.35 -21.34 27.7 -21 26 C-20.34 26 -19.68 26 -19 26 C-19 25.01 -19 24.02 -19 23 C-18.360625 22.7525 -17.72125 22.505 -17.0625 22.25 C-14.82698013 21.22075249 -14.82698013 21.22075249 -14.5 19.125 C-14.335 18.42375 -14.17 17.7225 -14 17 C-12.0625 14.75 -12.0625 14.75 -10 13 C-9.34 13 -8.68 13 -8 13 C-7.566875 12.1028125 -7.566875 12.1028125 -7.125 11.1875 C-6 9 -6 9 -4 6 C-3.34 6 -2.68 6 -2 6 C-1.855625 5.38125 -1.71125 4.7625 -1.5625 4.125 C-1 2 -1 2 0 0 Z " fill="#3E998C" transform="translate(682,875)"/>
<path d="M0 0 C0.99 0.33 1.98 0.66 3 1 C-29.27459016 19 -29.27459016 19 -39 19 C-39 18.34 -39 17.68 -39 17 C-37.02 16.67 -35.04 16.34 -33 16 C-33 15.34 -33 14.68 -33 14 C-31.02 14 -29.04 14 -27 14 C-27 13.34 -27 12.68 -27 12 C-25.7625 11.6596875 -25.7625 11.6596875 -24.5 11.3125 C-21.64095933 10.24035975 -19.8345466 9.29728587 -17.375 7.625 C-13.01161796 4.76126577 -8.40815667 3.31362982 -3.44140625 1.796875 C-1.07859272 1.22952526 -1.07859272 1.22952526 0 0 Z " fill="#489E91" transform="translate(594,955)"/>
<path d="M0 0 C0.66 0.33 1.32 0.66 2 1 C0.625 3 0.625 3 -1 5 C-1.66 5 -2.32 5 -3 5 C-3 5.66 -3 6.32 -3 7 C-4 8 -5 9 -6 10 C-6.33 10.99 -6.66 11.98 -7 13 C-7.66 13 -8.32 13 -9 13 C-9 22.57 -9 32.14 -9 42 C-9.33 42 -9.66 42 -10 42 C-10.76402491 35.79462699 -11.2364517 29.6886703 -11.3125 23.4375 C-11.34150391 22.63892578 -11.37050781 21.84035156 -11.40039062 21.01757812 C-11.47283517 14.17992759 -9.74343603 8.98878397 -5.078125 3.90625 C-4.47484375 3.4421875 -3.8715625 2.978125 -3.25 2.5 C-2.63640625 2.0153125 -2.0228125 1.530625 -1.390625 1.03125 C-0.93171875 0.6909375 -0.4728125 0.350625 0 0 Z " fill="#D9F9F6" transform="translate(286,717)"/>
<path d="M0 0 C1.99217851 3.31572231 2.21629451 5.7399516 2.125 9.578125 C2.10953125 10.65707031 2.0940625 11.73601563 2.078125 12.84765625 C2.02640026 15.10026868 1.97432193 17.35287302 1.921875 19.60546875 C1.83281852 25.84684358 2.23078239 31.01898823 4 37 C4.29818166 38.78428057 4.55707863 40.57629191 4.75 42.375 C4.84796875 43.20773437 4.9459375 44.04046875 5.046875 44.8984375 C5 47 5 47 3 49 C-0.13262553 32.37042403 -2.41246411 16.88724878 0 0 Z " fill="#36988A" transform="translate(217,734)"/>
<path d="M0 0 C0.66 0 1.32 0 2 0 C3.30760893 2.61521785 3.11997548 4.53113401 3.11352539 7.45947266 C3.11344986 8.60050446 3.11337433 9.74153625 3.11329651 10.91714478 C3.10813522 12.15362762 3.10297394 13.39011047 3.09765625 14.6640625 C3.0962413 15.92640717 3.09482635 17.18875183 3.09336853 18.48934937 C3.08871078 21.84638299 3.07972408 25.203349 3.06866455 28.56036377 C3.0584377 31.98554906 3.05386818 35.41074134 3.04882812 38.8359375 C3.03778238 45.55731043 3.02103194 52.27865131 3 59 C2.01 59.495 2.01 59.495 1 60 C1.00222061 59.45479706 1.00444122 58.90959412 1.00672913 58.34786987 C1.02908544 52.60382756 1.04403124 46.85979787 1.05493164 41.11572266 C1.05991869 38.98030087 1.06671072 36.84488242 1.07543945 34.70947266 C1.12168415 23.09389217 1.12726999 11.57262742 0 0 Z " fill="#D9FCFA" transform="translate(730,696)"/>
<path d="M0 0 C-1.3188993 3.4557624 -2.82719865 6.67414431 -4.609375 9.9140625 C-5.11726563 10.84089844 -5.62515625 11.76773437 -6.1484375 12.72265625 C-6.67695313 13.68042969 -7.20546875 14.63820313 -7.75 15.625 C-8.26304687 16.55957031 -8.77609375 17.49414062 -9.3046875 18.45703125 C-10.33948473 20.3420262 -11.37528907 22.22646863 -12.41210938 24.11035156 C-14.95284615 28.73399246 -17.47654921 33.36690826 -20 38 C-21.25541557 34.23375329 -20.37061958 32.62811066 -19 29 C-18.34 29 -17.68 29 -17 29 C-16.855625 28.21625 -16.71125 27.4325 -16.5625 26.625 C-16 24 -16 24 -15 22 C-14.34 22 -13.68 22 -13 22 C-13 20.68 -13 19.36 -13 18 C-12.34 18 -11.68 18 -11 18 C-10.7834375 17.1028125 -10.7834375 17.1028125 -10.5625 16.1875 C-10.1127561 14.43849596 -9.57107659 12.71322977 -9 11 C-8.34 11 -7.68 11 -7 11 C-7 10.01 -7 9.02 -7 8 C-6.34 8 -5.68 8 -5 8 C-5.061875 7.236875 -5.12375 6.47375 -5.1875 5.6875 C-5 3 -5 3 -3.625 1.1875 C-2 0 -2 0 0 0 Z " fill="#DAF9F7" transform="translate(386,303)"/>
<path d="M0 0 C0.825 0.4846875 1.65 0.969375 2.5 1.46875 C16.55790876 9.65716207 31.03583674 16.63227095 46 23 C39.24652642 25.29678944 32.30927295 20.1931049 26.29052734 17.26049805 C20.1646357 14.22686972 14.10652876 11.05913101 8.125 7.75 C6.99320312 7.12609375 5.86140625 6.5021875 4.6953125 5.859375 C2.0336884 4.02324012 1.04963667 3.00275807 0 0 Z " fill="#D8F9F6" transform="translate(337,948)"/>
<path d="M0 0 C5.8379003 0.50564491 10.17271818 2.25103179 15.375 4.875 C20.02178626 7.15765832 24.52194272 9.33188811 29.5 10.8125 C31.2325 11.4003125 31.2325 11.4003125 33 12 C33.495 13.485 33.495 13.485 34 15 C25.71190519 13.08783493 18.41378709 10.09120269 10.8125 6.3125 C9.76513672 5.80138672 8.71777344 5.29027344 7.63867188 4.76367188 C5.08816262 3.51753265 2.5422207 2.26293858 0 1 C0 0.67 0 0.34 0 0 Z " fill="#D7F8F5" transform="translate(370,897)"/>
<path d="M0 0 C3.02143822 3.02143822 3.16034897 5.88228874 3.46484375 9.97265625 C3.54283203 10.95556641 3.62082031 11.93847656 3.70117188 12.95117188 C3.85663657 14.99790953 4.01033203 17.04478248 4.16210938 19.09179688 C4.61741145 24.78862525 5.33173291 30.2658847 6.59985352 35.84155273 C7 38 7 38 7 42 C6.34 42 5.68 42 5 42 C4.86722656 41.15695312 4.73445313 40.31390625 4.59765625 39.4453125 C4.42105469 38.34960938 4.24445313 37.25390625 4.0625 36.125 C3.80146484 34.48917969 3.80146484 34.48917969 3.53515625 32.8203125 C3.14448841 30.06178454 3.14448841 30.06178454 2 28 C1.7677354 25.28737884 1.58063765 22.59226874 1.4375 19.875 C1.39431641 19.12089844 1.35113281 18.36679687 1.30664062 17.58984375 C1.2005168 15.72678112 1.09974999 13.86341476 1 12 C0.67 12 0.34 12 0 12 C0 8.04 0 4.08 0 0 Z " fill="#D6F6F3" transform="translate(319,727)"/>
<path d="M0 0 C-8.7849686 6.71273008 -17.51612972 13.29360348 -27 19 C-27.33 18.01 -27.66 17.02 -28 16 C-26.25447936 14.84735447 -24.50339804 13.70312673 -22.75 12.5625 C-21.77546875 11.92441406 -20.8009375 11.28632812 -19.796875 10.62890625 C-17.38295476 9.22303371 -15.65988409 8.61475582 -13 8 C-11.89163577 6.11683841 -11.89163577 6.11683841 -11 4 C-7.68654892 0.08410327 -4.97924933 -1.45531296 0 0 Z " fill="#429C8F" transform="translate(633,932)"/>
<path d="M0 0 C3.55761764 2.68797778 3.76910479 5.7538469 4.5 10 C4.74294848 11.34562375 4.98907575 12.69067722 5.23828125 14.03515625 C5.36154785 14.7017627 5.48481445 15.36836914 5.61181641 16.05517578 C6.48580326 20.43390489 7.74476714 24.71796449 9 29 C9.66 29 10.32 29 11 29 C13.03993514 33.92984325 14.40652968 37.57960425 14 43 C11.89216862 39.83825294 10.51688624 36.63389746 9.125 33.125 C8.86106445 32.46242188 8.59712891 31.79984375 8.32519531 31.1171875 C5.86860431 24.84554957 3.86906082 18.46982592 2 12 C1.773125 11.278125 1.54625 10.55625 1.3125 9.8125 C0.26859158 6.44879509 -0.21356721 3.523859 0 0 Z " fill="#D6F9F6" transform="translate(279,772)"/>
<path d="M0 0 C1.2456406 3.7369218 0.6963316 4.5265591 -1 8 C-1.680625 8.99 -2.36125 9.98 -3.0625 11 C-4.94295562 13.91167322 -5.37289906 15.68532362 -6 19 C-6.495 19.474375 -6.99 19.94875 -7.5 20.4375 C-9.67409173 22.70217889 -9.66189749 24.95707737 -10 28 C-10.99 28 -11.98 28 -13 28 C-13.99 30.475 -13.99 30.475 -15 33 C-16 31 -16 31 -15.44238281 29.00830078 C-12.72154935 22.30291012 -9.41077703 16.11058193 -5.75 9.875 C-5.19570313 8.91851562 -4.64140625 7.96203125 -4.0703125 6.9765625 C-2.71946087 4.64750797 -1.36265836 2.32215957 0 0 Z " fill="#399B8C" transform="translate(381,312)"/>
<path d="M0 0 C1.75 0.1875 1.75 0.1875 4 1 C4.60328125 1.75667969 5.2065625 2.51335938 5.828125 3.29296875 C8.02173489 6.02709043 10.23940127 7.97880282 13 10.125 C13.845625 10.78757812 14.69125 11.45015625 15.5625 12.1328125 C16.366875 12.74898437 17.17125 13.36515625 18 14 C18.71671875 14.56074219 19.4334375 15.12148438 20.171875 15.69921875 C22.12142449 17.0863982 23.66137805 17.58238894 26 18 C26 18.66 26 19.32 26 20 C26.99 20 27.98 20 29 20 C30.02104551 20.97850195 31.0206121 21.97980427 32 23 C32.99 23.33 33.98 23.66 35 24 C35.495 25.485 35.495 25.485 36 27 C23.04580907 22.10772576 7.7253825 11.58807375 0 0 Z " fill="#42988B" transform="translate(361,831)"/>
<path d="M0 0 C4.28587772 1.54767807 7.77385937 3.03817499 10.25 7 C11 9 11 9 11 12 C11.66 12 12.32 12 13 12 C14.75517768 28.24068018 14.75517768 28.24068018 11 35 C9.43305359 36.8877752 7.86649654 38.38573273 6 40 C5.01 39.67 4.02 39.34 3 39 C3.763125 38.34 4.52625 37.68 5.3125 37 C9.54564297 32.71875313 11.12267799 27.56464188 11.4375 21.625 C11.1848181 15.52904909 9.42283239 9.5629105 5.17578125 5.0703125 C3.94595565 4.02758005 2.68573235 3.019041 1.390625 2.05859375 C0.93171875 1.70925781 0.4728125 1.35992188 0 1 C0 0.67 0 0.34 0 0 Z " fill="#439A8E" transform="translate(455,874)"/>
<path d="M0 0 C2.84323792 1.15835619 4.31388887 2.3217361 6.5 4.5625 C8.86027002 6.86376327 9.81596775 7.64621864 13 8 C13 8.99 13 9.98 13 11 C13.639375 11.268125 14.27875 11.53625 14.9375 11.8125 C17 13 17 13 18 16 C19.84448589 17.04763341 19.84448589 17.04763341 22 18 C23.39548933 18.99264053 24.77058822 20.01450457 26.125 21.0625 C28.93627263 23.23226195 28.93627263 23.23226195 32 25 C31.67 25.99 31.34 26.98 31 28 C6.30612092 8.1979572 6.30612092 8.1979572 0 0 Z " fill="#449B8F" transform="translate(293,912)"/>
<path d="M0 0 C1.14933671 3.44801013 0.80542753 4.57115143 -0.109375 8.015625 C-0.36831543 9.01335938 -0.62725586 10.01109375 -0.89404297 11.0390625 C-1.17650879 12.09867188 -1.45897461 13.15828125 -1.75 14.25 C-4.13674171 23.46014499 -6.29004925 32.64026959 -8 42 C-8.33 42 -8.66 42 -9 42 C-9.29404353 35.46569938 -9.42222011 29.96645426 -6.7265625 23.9453125 C-5.63148087 21.01331976 -5.4900101 18.08653664 -5.30859375 14.98046875 C-5 13 -5 13 -3 10 C-2.41162754 8.28616279 -1.87280046 6.55480159 -1.375 4.8125 C-1.11460937 3.91144531 -0.85421875 3.01039063 -0.5859375 2.08203125 C-0.39257812 1.39496094 -0.19921875 0.70789063 0 0 Z " fill="#D5F7F4" transform="translate(226,649)"/>
<path d="M0 0 C0.66 0.33 1.32 0.66 2 1 C-3.61 11.89 -9.22 22.78 -15 34 C-15.33 34 -15.66 34 -16 34 C-16 32.35 -16 30.7 -16 29 C-15.34 29 -14.68 29 -14 29 C-14 27.68 -14 26.36 -14 25 C-13.34 25 -12.68 25 -12 25 C-11.896875 24.29875 -11.79375 23.5975 -11.6875 22.875 C-10.90640997 19.60862353 -9.57941257 16.9528148 -8 14 C-7.34 14 -6.68 14 -6 14 C-6 12.68 -6 11.36 -6 10 C-5.34 10 -4.68 10 -4 10 C-4 8.68 -4 7.36 -4 6 C-3.34 6 -2.68 6 -2 6 C-1.855625 5.195625 -1.71125 4.39125 -1.5625 3.5625 C-1 1 -1 1 0 0 Z " fill="#DAF9F7" transform="translate(345,374)"/>
<path d="M0 0 C8.60929956 0.65855449 17.17575928 1.54891611 25.75 2.5625 C27.52890625 2.77036133 27.52890625 2.77036133 29.34375 2.98242188 C32.2293779 3.31985417 35.11478335 3.65907233 38 4 C38 4.33 38 4.66 38 5 C25.27519006 5.33782681 12.47414962 4.73642413 0 2 C0 1.34 0 0.68 0 0 Z " fill="#D2F5F2" transform="translate(421,983)"/>
<path d="M0 0 C-10.55714129 6.95177794 -22.77052161 7.624484 -35 7 C-35 6.67 -35 6.34 -35 6 C-33.70707031 5.74605469 -32.41414062 5.49210938 -31.08203125 5.23046875 C-29.32543576 4.88324262 -27.56893142 4.53555513 -25.8125 4.1875 C-24.90516113 4.00807861 -23.99782227 3.82865723 -23.06298828 3.64379883 C-16.7765365 2.38840299 -10.55101818 0.99171026 -4.3359375 -0.58203125 C-2 -1 -2 -1 0 0 Z " fill="#D3F5F2" transform="translate(548,978)"/>
<path d="M0 0 C4.24442678 3.88621372 6.82130911 8.981252 9.75 13.875 C10.36488281 14.86886719 10.97976563 15.86273438 11.61328125 16.88671875 C12.18949219 17.84964844 12.76570312 18.81257813 13.359375 19.8046875 C13.89014648 20.68108887 14.42091797 21.55749023 14.96777344 22.46044922 C16.18350143 25.45146213 15.93017314 26.95747333 15 30 C12.90684915 27.90684915 12.50417745 26.86596501 11.625 24.125 C10.61157416 21.24063414 10.03197196 20.03197196 7.8125 17.8125 C6 16 6 16 5.75 13.25 C5.8325 12.5075 5.915 11.765 6 11 C5.34 11 4.68 11 4 11 C1.38411497 7.44239635 0.50642192 4.35522853 0 0 Z " fill="#3C9C8D" transform="translate(592,385)"/>
<path d="M0 0 C6.85101673 0.82311973 13.67702468 1.78299781 20.5 2.8125 C22.13388672 3.04163086 22.13388672 3.04163086 23.80078125 3.27539062 C30.26901576 4.26478804 35.38101317 5.59516155 41 9 C41.495 9.99 41.495 9.99 42 11 C39.12067738 10.5886682 37.1745555 10.11210805 34.70703125 8.52734375 C31.66767099 6.81249547 29.32203016 6.34081489 25.875 5.875 C24.73417969 5.71644531 23.59335937 5.55789063 22.41796875 5.39453125 C19.34083847 5.0393425 16.27663183 4.78222904 13.1875 4.5625 C8.31955205 4.17706131 4.47017645 2.93988789 0 1 C0 0.67 0 0.34 0 0 Z " fill="#CEF4F1" transform="translate(417,867)"/>
<path d="M0 0 C5.01784907 4.33976136 7.35859861 8.59623193 8.3203125 15.19921875 C8.63101006 21.13354218 6.96096244 25.88855754 4 31 C3.34 31.66 2.68 32.32 2 33 C2 31.68 2 30.36 2 29 C2.66 29 3.32 29 4 29 C4.92055082 25.091312 5.13429682 21.44907765 5.125 17.4375 C5.12757813 16.32246094 5.13015625 15.20742188 5.1328125 14.05859375 C5.02206147 11.50806272 4.7467862 9.42409171 4 7 C3.34 7 2.68 7 2 7 C0.5393715 4.35261084 0 3.10551666 0 0 Z " fill="#CAF4F0" transform="translate(459,878)"/>
<path d="M0 0 C0.33 0 0.66 0 1 0 C2.1735367 4.00958372 2.23801604 5.54946964 0.25 9.3125 C-0.12511719 9.89515625 -0.50023437 10.4778125 -0.88671875 11.078125 C-2.49661771 13.85731899 -3.3216638 16.78970693 -4.2734375 19.84375 C-5.24007306 22.7124749 -6.56701291 25.33873826 -8 28 C-8.66 27.67 -9.32 27.34 -10 27 C-7.58650007 17.64481454 -3.75743534 8.873724 0 0 Z " fill="#429E90" transform="translate(265,542)"/>
<path d="M0 0 C1 3 1 3 -0.25 6.5 C-2 10 -2 10 -3.515625 11.4375 C-5.34266714 13.36070225 -5.78876907 14.95988954 -6.5 17.5 C-7.43703142 20.84654078 -8.35600603 22.70853856 -11 25 C-11.99 24.67 -12.98 24.34 -14 24 C-9.38 16.08 -4.76 8.16 0 0 Z " fill="#3D9A8C" transform="translate(396,286)"/>
<path d="M0 0 C0.66 0 1.32 0 2 0 C4.12889463 4.06047052 6.25243059 8.12371995 8.375 12.1875 C8.97828125 13.33798828 9.5815625 14.48847656 10.203125 15.67382812 C10.78320312 16.78564453 11.36328125 17.89746094 11.9609375 19.04296875 C12.49509277 20.06414795 13.02924805 21.08532715 13.57958984 22.13745117 C14.8619122 24.72171203 15.97408865 27.30535944 17 30 C16.01 29.67 15.02 29.34 14 29 C13.67 27.35 13.34 25.7 13 24 C12.34 24 11.68 24 11 24 C10.01 20.7 9.02 17.4 8 14 C7.01 14 6.02 14 5 14 C4.35089846 12.41800369 3.70585306 10.83434276 3.0625 9.25 C2.70285156 8.36828125 2.34320312 7.4865625 1.97265625 6.578125 C1.14643424 4.38813896 0.50630057 2.28101729 0 0 Z " fill="#459D90" transform="translate(630,453)"/>
<path d="M0 0 C0.66 0.99 1.32 1.98 2 3 C1.54625 3.391875 1.0925 3.78375 0.625 4.1875 C-1.321538 6.35863854 -1.96773416 8.26753159 -3 11 C-3.62532099 12.42583968 -4.27262194 13.84217107 -4.9375 15.25 C-5.25589844 15.93578125 -5.57429688 16.6215625 -5.90234375 17.328125 C-7 19 -7 19 -10 20 C-11.21869929 22.50447516 -11.21869929 22.50447516 -12 25 C-12.66 25 -13.32 25 -14 25 C-12.68071914 21.48283007 -11.12651609 18.34691482 -9.1796875 15.13671875 C-8.37724609 13.80737305 -8.37724609 13.80737305 -7.55859375 12.45117188 C-6.72521484 11.0831543 -6.72521484 11.0831543 -5.875 9.6875 C-5.31167969 8.75615234 -4.74835938 7.82480469 -4.16796875 6.86523438 C-2.7819554 4.57478858 -1.39254372 2.28647924 0 0 Z " fill="#3A9B8D" transform="translate(423,240)"/>
<path d="M0 0 C2.84017102 2.7919417 5.60558081 5.62975928 8.3046875 8.55859375 C8.88863281 9.19216797 9.47257812 9.82574219 10.07421875 10.47851562 C11.26921712 11.77849758 12.46195045 13.0805655 13.65234375 14.38476562 C17.53806677 18.59074054 21.58713348 22.34894547 26 26 C25.01 26.33 24.02 26.66 23 27 C22.01 26.34 21.02 25.68 20 25 C20 24.34 20 23.68 20 23 C19.42894531 22.76410156 18.85789062 22.52820313 18.26953125 22.28515625 C10.98400374 18.15961657 4.63025652 8.90816407 0 2 C0 1.34 0 0.68 0 0 Z " fill="#449B8E" transform="translate(312,848)"/>
<path d="M0 0 C0.33 0.66 0.66 1.32 1 2 C-1.12519273 8.22377872 -5.93112264 12.95783304 -11 17 C-14.29296875 18.265625 -14.29296875 18.265625 -17 19 C-12.89535458 14.05337603 -8.56083378 9.49795395 -3.953125 5.015625 C-1.84130266 2.9576598 -1.84130266 2.9576598 0 0 Z " fill="#D5F6F2" transform="translate(667,898)"/>
<path d="M0 0 C5.41089194 5.41089194 7.80212096 14.57314994 9 22 C9.66 22 10.32 22 11 22 C11.65134925 23.56020867 12.29582964 25.12328579 12.9375 26.6875 C13.29714844 27.55761719 13.65679687 28.42773438 14.02734375 29.32421875 C14.9570312 31.88179265 15.54162625 34.3221323 16 37 C13.94423444 34.38413834 12.30895048 31.84159886 10.87890625 28.83984375 C10.31417603 27.65648437 10.31417603 27.65648437 9.73803711 26.44921875 C9.35010986 25.62035156 8.96218262 24.79148437 8.5625 23.9375 C8.16361572 23.08929687 7.76473145 22.24109375 7.35375977 21.3671875 C0 5.5520013 0 5.5520013 0 0 Z " fill="#469A8E" transform="translate(230,813)"/>
<path d="M0 0 C1 3 1 3 0.05957031 5.38842773 C-0.42930664 6.31083252 -0.91818359 7.2332373 -1.421875 8.18359375 C-1.95296875 9.19357422 -2.4840625 10.20355469 -3.03125 11.24414062 C-3.5984375 12.29794922 -4.165625 13.35175781 -4.75 14.4375 C-5.30171875 15.48744141 -5.8534375 16.53738281 -6.421875 17.61914062 C-8.72758713 21.96729247 -10.94472033 26.12646336 -14 30 C-13.67 27.69 -13.34 25.38 -13 23 C-12.34 23 -11.68 23 -11 23 C-10.34 20.36 -9.68 17.72 -9 15 C-8.34 15 -7.68 15 -7 15 C-7 13.68 -7 12.36 -7 11 C-6.34 11 -5.68 11 -5 11 C-4.855625 10.236875 -4.71125 9.47375 -4.5625 8.6875 C-4 6 -4 6 -3 3 C-2.34 3 -1.68 3 -1 3 C-0.67 2.01 -0.34 1.02 0 0 Z " fill="#DFFDFB" transform="translate(326,411)"/>
<path d="M0 0 C0.33 0 0.66 0 1 0 C0.6894943 11.98449067 0.1093925 23.36422303 -3 35 C-3.66 35 -4.32 35 -5 35 C-4.59943096 30.0455935 -4.10096959 25.17777091 -3.0625 20.3125 C-1.63438552 13.60143572 -0.85275527 6.80389839 0 0 Z " fill="#CCF0ED" transform="translate(730,756)"/>
<path d="M0 0 C0.66 0 1.32 0 2 0 C2.33 2.31 2.66 4.62 3 7 C3.66 7 4.32 7 5 7 C5.66 10.3 6.32 13.6 7 17 C7.66 17 8.32 17 9 17 C9.70180531 18.4096347 10.38593958 19.82807641 11.0625 21.25 C11.44535156 22.03890625 11.82820313 22.8278125 12.22265625 23.640625 C13.10224325 26.31032626 12.77788565 27.37312137 12 30 C1.8742123 9.5864882 1.8742123 9.5864882 0 0 Z " fill="#489C8F" transform="translate(328,775)"/>
<path d="M0 0 C6.0984709 1.2474145 10.7683174 4.07706414 16.03515625 7.34375 C18.97377112 8.98534777 21.78067966 10.04329262 25 11 C25 11.99 25 12.98 25 14 C19.44420616 12.42032356 14.69194469 9.80923118 9.6875 7 C8.86443359 6.54882812 8.04136719 6.09765625 7.19335938 5.6328125 C6.41154297 5.19710937 5.62972656 4.76140625 4.82421875 4.3125 C4.11354248 3.91675781 3.40286621 3.52101563 2.6706543 3.11328125 C1 2 1 2 0 0 Z " fill="#499F93" transform="translate(341,950)"/>
<path d="M0 0 C2.97 0 5.94 0 9 0 C9 0.66 9 1.32 9 2 C14.61 2.66 20.22 3.32 26 4 C26 4.66 26 5.32 26 6 C17.10115016 5.52735047 8.66875541 4.03895283 0 2 C0 1.34 0 0.68 0 0 Z " fill="#4DA195" transform="translate(412,979)"/>
<path d="M0 0 C0.66 0 1.32 0 2 0 C2 1.65 2 3.3 2 5 C1.01 5.33 0.02 5.66 -1 6 C-1 7.32 -1 8.64 -1 10 C-1.66 10 -2.32 10 -3 10 C-3.0825 10.66 -3.165 11.32 -3.25 12 C-4.24759791 15.99039163 -6.07166683 19.38549643 -8 23 C-8.66 23 -9.32 23 -10 23 C-8.41980408 17.7936703 -6.22115005 13.01626689 -3.875 8.125 C-3.50246094 7.34125 -3.12992187 6.5575 -2.74609375 5.75 C-1.83381003 3.83186501 -0.91733016 1.91572671 0 0 Z " fill="#419B8D" transform="translate(304,457)"/>
<path d="M0 0 C1.32 0.33 2.64 0.66 4 1 C3.34 1 2.68 1 2 1 C1.76410156 1.66386719 1.52820313 2.32773438 1.28515625 3.01171875 C-0.35281243 6.82036934 -2.41738503 10.27119645 -4.5625 13.8125 C-4.97435547 14.50537109 -5.38621094 15.19824219 -5.81054688 15.91210938 C-6.84286827 17.62701317 -7.91770235 19.31619055 -9 21 C-9.33 21 -9.66 21 -10 21 C-10.42820102 17.36029133 -9.97413512 15.95430537 -8.125 12.6875 C-7.073125 11.3571875 -7.073125 11.3571875 -6 10 C-5.34 10 -4.68 10 -4 10 C-4 8.68 -4 7.36 -4 6 C-3.34 6 -2.68 6 -2 6 C-1.855625 5.38125 -1.71125 4.7625 -1.5625 4.125 C-1 2 -1 2 0 0 Z " fill="#DAF9F6" transform="translate(461,174)"/>
<path d="M0 0 C0 4.31361814 -2.16863048 5.89410059 -4.98828125 8.98828125 C-7.82224052 11.82224052 -10.55064737 13.94365516 -14 16 C-14.99 15.67 -15.98 15.34 -17 15 C-11.39476999 9.92484204 -5.76774721 4.89004655 0 0 Z " fill="#D8F8F5" transform="translate(649,917)"/>
<path d="M0 0 C-6.8666646 5.44597538 -15.04915045 4.54439949 -23.4765625 3.7734375 C-24.99063274 3.55536154 -26.49732192 3.2862244 -28 3 C-28 2.67 -28 2.34 -28 2 C-27.40461426 1.97494385 -26.80922852 1.9498877 -26.19580078 1.92407227 C-23.50530864 1.80822506 -20.8151766 1.68544804 -18.125 1.5625 C-17.18785156 1.52318359 -16.25070312 1.48386719 -15.28515625 1.44335938 C-14.38925781 1.40146484 -13.49335938 1.35957031 -12.5703125 1.31640625 C-11.32918701 1.26141968 -11.32918701 1.26141968 -10.06298828 1.20532227 C-6.52097234 0.85279737 -3.76589347 -0.08186725 0 0 Z " fill="#CFF5F1" transform="translate(456,915)"/>
<path d="M0 0 C3.15162094 4.7274314 4.1769552 10.12272242 5.6875 15.5625 C6.02072266 16.72458984 6.35394531 17.88667969 6.69726562 19.08398438 C7.16229492 20.7459082 7.16229492 20.7459082 7.63671875 22.44140625 C8.06537231 23.96809937 8.06537231 23.96809937 8.50268555 25.52563477 C9 28 9 28 8 30 C5.29216332 26.87897843 4.50730407 24.5035776 3.9375 20.4375 C3.4162786 16.77902219 3.09354886 15.14032328 1 12 C0.5859375 9.08203125 0.5859375 9.08203125 0.375 5.8125 C0.30023438 4.72582031 0.22546875 3.63914062 0.1484375 2.51953125 C0.09945312 1.68808594 0.05046875 0.85664062 0 0 Z " fill="#C1EBE7" transform="translate(220,783)"/>
<path d="M0 0 C0.66 0 1.32 0 2 0 C10.72413793 16.51724138 10.72413793 16.51724138 10 24 C7.459956 20.189934 5.73279582 16.17511711 3.875 12 C3.50246094 11.18015625 3.12992188 10.3603125 2.74609375 9.515625 C2.39417969 8.72671875 2.04226563 7.9378125 1.6796875 7.125 C1.35726074 6.40570312 1.03483398 5.68640625 0.70263672 4.9453125 C0 3 0 3 0 0 Z " fill="#DAF9F7" transform="translate(685,559)"/>
<path d="M0 0 C0.67482422 0.51046875 0.67482422 0.51046875 1.36328125 1.03125 C6.42166858 4.84278034 11.53645662 8.56937551 16.6796875 12.265625 C19 14 19 14 21 16 C13.37842828 15.27413603 9.17321976 11.30935712 4 6 C3.236875 5.46375 2.47375 4.9275 1.6875 4.375 C1.130625 3.92125 0.57375 3.4675 0 3 C0 2.01 0 1.02 0 0 Z " fill="#DAFAF8" transform="translate(366,837)"/>
<path d="M0 0 C1.83401676 2.69708347 1.99687753 4.05620442 1.8125 7.375 C1.00219542 10.99020504 -0.193942 13.7805053 -2 17 C-2.66 17 -3.32 17 -4 17 C-3.58411954 10.80481527 -2.39748106 5.73310689 0 0 Z " fill="#37998B" transform="translate(231,637)"/>
<path d="M0 0 C0.66 0.33 1.32 0.66 2 1 C-1.63 7.6 -5.26 14.2 -9 21 C-9.33 21 -9.66 21 -10 21 C-10.25 15.375 -10.25 15.375 -8 12 C-7.34 12 -6.68 12 -6 12 C-6 11.01 -6 10.02 -6 9 C-5.34 9 -4.68 9 -4 9 C-3.7834375 7.824375 -3.7834375 7.824375 -3.5625 6.625 C-3 4 -3 4 -2 2 C-1.34 2 -0.68 2 0 2 C0 1.34 0 0.68 0 0 Z " fill="#D9F9F7" transform="translate(397,281)"/>
<path d="M0 0 C3.00977985 3.3236339 3.42016713 5.76203184 3.625 10.1875 C3.49076722 13.90933816 3.49076722 13.90933816 5 17 C5.04092937 19.33297433 5.04241723 21.66705225 5 24 C0.79575954 19.79575954 0.19481256 11.91026114 -0.19140625 6.140625 C-0.18814532 4.09275847 -0.10399459 2.04522691 0 0 Z " fill="#359487" transform="translate(324,751)"/>
<path d="M0 0 C1.32 0.33 2.64 0.66 4 1 C3.51789063 1.64066406 3.03578125 2.28132813 2.5390625 2.94140625 C-1.71072983 8.5722992 -1.71072983 8.5722992 -4.25 15.0625 C-4.62125 16.5165625 -4.62125 16.5165625 -5 18 C-5.99 18.33 -6.98 18.66 -8 19 C-7.38188466 14.44684052 -5.53234107 10.71540233 -3.4375 6.6875 C-2.9434668 5.71973633 -2.9434668 5.71973633 -2.43945312 4.73242188 C-1.63175745 3.15214772 -0.81662387 1.57567895 0 0 Z " fill="#3A988A" transform="translate(333,400)"/>
<path d="M0 0 C2 2 2 2 2 6 C2.99 6 3.98 6 5 6 C6.84526962 8.62596061 7.98375849 10.95127546 9 14 C9.66 14 10.32 14 11 14 C11.33 15.65 11.66 17.3 12 19 C6.67449525 14.00733929 0.32973219 7.98919656 -2 1 C-1.34 0.67 -0.68 0.34 0 0 Z " fill="#40998C" transform="translate(262,872)"/>
<path d="M0 0 C7.33215324 -0.36660766 14.04427276 0.53839523 21 3 C21.33 3.66 21.66 4.32 22 5 C14.47407567 4.3622098 7.32901118 2.80110167 0 1 C0 0.67 0 0.34 0 0 Z " fill="#DBFAF7" transform="translate(405,912)"/>
<path d="M0 0 C7.75 -0.125 7.75 -0.125 10 1 C12.36950521 1.38923527 14.7457572 1.7380578 17.125 2.0625 C19.04699219 2.32740234 19.04699219 2.32740234 21.0078125 2.59765625 C22.48894531 2.79681641 22.48894531 2.79681641 24 3 C19.58958543 5.94027638 16.07371174 4.87573655 11 4 C7.29672471 3.11382581 3.64459908 2.1016944 0 1 C0 0.67 0 0.34 0 0 Z " fill="#48A093" transform="translate(414,865)"/>
<path d="M0 0 C0.99 0 1.98 0 3 0 C4.31640625 1.71484375 4.31640625 1.71484375 5.5625 3.9375 C7.20338711 7.06087402 7.20338711 7.06087402 10 9 C10.66666667 10.66666667 11.33333333 12.33333333 12 14 C12.66 14.33 13.32 14.66 14 15 C13.67 16.32 13.34 17.64 13 19 C11.20455714 16.58606009 9.41356187 14.16902994 7.625 11.75 C7.11710937 11.06808594 6.60921875 10.38617187 6.0859375 9.68359375 C5.59609375 9.01972656 5.10625 8.35585938 4.6015625 7.671875 C4.15119629 7.0644043 3.70083008 6.45693359 3.23681641 5.83105469 C1.96851836 3.95339275 0.96787304 2.04636015 0 0 Z " fill="#D8F9F6" transform="translate(303,834)"/>
<path d="M0 0 C0.78821819 2.29543427 1.13558044 3.58008982 0.37915039 5.92285156 C0.03875732 6.5722168 -0.30163574 7.22158203 -0.65234375 7.890625 C-1.01650391 8.59960938 -1.38066406 9.30859375 -1.75585938 10.0390625 C-2.14580078 10.76867187 -2.53574219 11.49828125 -2.9375 12.25 C-3.32357422 12.99507812 -3.70964844 13.74015625 -4.10742188 14.5078125 C-5.06090166 16.34414394 -6.02905677 18.17284207 -7 20 C-7.66 20 -8.32 20 -9 20 C-8.37348573 17.1375259 -7.47829483 14.71918347 -6.15234375 12.109375 C-5.79462891 11.40039062 -5.43691406 10.69140625 -5.06835938 9.9609375 C-4.69517578 9.23132813 -4.32199219 8.50171875 -3.9375 7.75 C-3.56044922 7.00492188 -3.18339844 6.25984375 -2.79492188 5.4921875 C-1.86689327 3.65962469 -0.93392821 1.82956324 0 0 Z " fill="#3B988B" transform="translate(709,829)"/>
<path d="M0 0 C2.31 0 4.62 0 7 0 C6.43152344 0.27585937 5.86304688 0.55171875 5.27734375 0.8359375 C-2.1514104 4.63313945 -7.19322376 8.46296564 -11 16 C-12.125 12.25 -12.125 12.25 -11 10 C-10.34 10 -9.68 10 -9 10 C-8.34 8.35 -7.68 6.7 -7 5 C-6.34 5 -5.68 5 -5 5 C-5 4.34 -5 3.68 -5 3 C-3.35 2.67 -1.7 2.34 0 2 C0 1.34 0 0.68 0 0 Z " fill="#459D8F" transform="translate(287,714)"/>
<path d="M0 0 C-4.07211214 2.71474143 -8.31693761 3.6956804 -13 5 C-13.75667969 5.22171875 -14.51335938 5.4434375 -15.29296875 5.671875 C-18.94928123 6.68713625 -21.3833749 7.11525884 -25 6 C-8.08747856 -0.40437393 -8.08747856 -0.40437393 0 0 Z " fill="#419A8D" transform="translate(554,974)"/>
<path d="M0 0 C2.3125 0.125 2.3125 0.125 5 1 C6.05226728 2.97300116 7.04788888 4.97676387 8 7 C11.03666558 10.07810201 11.03666558 10.07810201 15 11 C15 12.65 15 14.3 15 16 C9.42911449 11.47365552 4.52582802 6.58381379 0 1 C0 0.67 0 0.34 0 0 Z " fill="#3E9A8C" transform="translate(274,892)"/>
<path d="M0 0 C3.0171926 2.55573961 4.2432533 5.38380793 5.75 9 C6.19859375 10.051875 6.6471875 11.10375 7.109375 12.1875 C8 15 8 15 7 18 C6.67 16.68 6.34 15.36 6 14 C5.34 14 4.68 14 4 14 C3.67 13.34 3.34 12.68 3 12 C2.01 12.495 2.01 12.495 1 13 C1.33 10.03 1.66 7.06 2 4 C1.34 4 0.68 4 0 4 C0 2.68 0 1.36 0 0 Z " fill="#46A093" transform="translate(693,582)"/>
<path d="M0 0 C3.80427705 3.41073115 6.22774561 7.27961581 8.8125 11.625 C9.23208984 12.305625 9.65167969 12.98625 10.08398438 13.6875 C11.12304523 15.41983869 12.069825 17.20684097 13 19 C12.67 19.66 12.34 20.32 12 21 C11.34 21 10.68 21 10 21 C9.67 19.02 9.34 17.04 9 15 C8.34 15 7.68 15 7 15 C6.5875 14.13375 6.175 13.2675 5.75 12.375 C4.06193844 8.95043153 4.06193844 8.95043153 1.8125 5.8125 C0 3 0 3 0 0 Z " fill="#439A8D" transform="translate(511,253)"/>
<path d="M0 0 C0.66 0 1.32 0 2 0 C0.50640515 4.84286815 -1.45033567 9.31350896 -3.625 13.875 C-3.94984375 14.56335938 -4.2746875 15.25171875 -4.609375 15.9609375 C-5.40323472 17.64205219 -6.20119558 19.32122921 -7 21 C-7.33 21 -7.66 21 -8 21 C-8 19.35 -8 17.7 -8 16 C-7.34 16 -6.68 16 -6 16 C-6 14.68 -6 13.36 -6 12 C-5.34 12 -4.68 12 -4 12 C-3.67 9.69 -3.34 7.38 -3 5 C-2.34 5 -1.68 5 -1 5 C-0.67 3.35 -0.34 1.7 0 0 Z " fill="#DAFAF8" transform="translate(287,489)"/>
<path d="M0 0 C1.04449911 3.13349732 0.93423645 3.98968256 0 7 C-0.66 7 -1.32 7 -2 7 C-1.9175 7.9075 -1.835 8.815 -1.75 9.75 C-2 13 -2 13 -3.875 15.375 C-6 17 -6 17 -8 17 C-6.3341708 10.83643195 -3.12194714 5.51740344 0 0 Z " fill="#459E91" transform="translate(343,381)"/>
<path d="M0 0 C1.45708597 3.91837983 0.60354951 7.11666453 -0.25 11.125 C-0.50265625 12.36507812 -0.7553125 13.60515625 -1.015625 14.8828125 C-2 18 -2 18 -5 20 C-4.45484328 12.91296261 -2.39081395 6.67203894 0 0 Z " fill="#459E92" transform="translate(237,616)"/>
<path d="M0 0 C0.33 0 0.66 0 1 0 C1.78459533 6.14599676 -0.01354504 9.24423545 -3.4921875 14.27734375 C-3.98976563 14.84582031 -4.48734375 15.41429687 -5 16 C-5.66 16 -6.32 16 -7 16 C-5.35433477 10.31497465 -2.70967216 5.23318364 0 0 Z " fill="#49A295" transform="translate(321,423)"/>
<path d="M0 0 C0.33 0 0.66 0 1 0 C1.4375 2.0625 1.4375 2.0625 1 5 C-1.12080183 7.57260172 -3.50627561 9.79254499 -6 12 C-6.99 11.67 -7.98 11.34 -9 11 C-7.52444734 9.16375669 -6.04446569 7.3310715 -4.5625 5.5 C-3.73878906 4.4790625 -2.91507813 3.458125 -2.06640625 2.40625 C-1.38449219 1.6121875 -0.70257812 0.818125 0 0 Z " fill="#CEF3F0" transform="translate(677,886)"/>
<path d="M0 0 C0.66 0 1.32 0 2 0 C3.03004293 2.78858 4.04930997 5.58030288 5.0625 8.375 C5.35705078 9.1690625 5.65160156 9.963125 5.95507812 10.78125 C6.22900391 11.54179688 6.50292969 12.30234375 6.78515625 13.0859375 C7.17006226 14.1385376 7.17006226 14.1385376 7.56274414 15.21240234 C8 17 8 17 7 19 C6.01161567 16.9627797 5.03467748 14.92000393 4.0625 12.875 C3.51722656 11.73804688 2.97195313 10.60109375 2.41015625 9.4296875 C1.0896881 6.21813339 0.41215779 3.43290921 0 0 Z " fill="#489E92" transform="translate(701,602)"/>
<path d="M0 0 C0.33 0 0.66 0 1 0 C0.74022567 5.96182091 0.23607109 9.50719733 -4 14 C-4.70885894 15.31138904 -5.39456452 16.63777017 -6 18 C-7.42600325 13.72199024 -5.45637064 11.13234078 -3.5625 7.3125 C-3.22412109 6.61060547 -2.88574219 5.90871094 -2.53710938 5.18554688 C-1.70018652 3.45276294 -0.85122607 1.72580248 0 0 Z " fill="#439D90" transform="translate(293,480)"/>
<path d="M0 0 C0.66 0 1.32 0 2 0 C0.51095825 3.89608498 -1.24378713 7.59097018 -3.125 11.3125 C-3.66382813 12.38113281 -4.20265625 13.44976562 -4.7578125 14.55078125 C-5.37269531 15.76314453 -5.37269531 15.76314453 -6 17 C-6.33 17 -6.66 17 -7 17 C-7 15.35 -7 13.7 -7 12 C-6.34 12 -5.68 12 -5 12 C-5 10.35 -5 8.7 -5 7 C-4.34 7 -3.68 7 -3 7 C-3 6.01 -3 5.02 -3 4 C-2.34 4 -1.68 4 -1 4 C-0.67 2.68 -0.34 1.36 0 0 Z " fill="#D6F7F5" transform="translate(354,357)"/>
<path d="M0 0 C4.39660094 0.03975227 8.22072941 0.9827084 12.4375 2.1875 C12.4375 2.5175 12.4375 2.8475 12.4375 3.1875 C10.35445462 3.24168326 8.27100232 3.28037551 6.1875 3.3125 C4.44726562 3.34730469 4.44726562 3.34730469 2.671875 3.3828125 C-0.39036046 3.1978949 -2.00452751 2.79573023 -4.5625 1.1875 C-3.5625 0.1875 -3.5625 0.1875 0 0 Z " fill="#2E9888" transform="translate(292.5625,710.8125)"/>
<path d="M0 0 C1.17679972 3.43498297 0.81887767 5.56282473 -0.25 9 C-0.62898438 10.2684375 -0.62898438 10.2684375 -1.015625 11.5625 C-2.04490752 14.11119958 -3.16521421 15.95714572 -5 18 C-5.66 18 -6.32 18 -7 18 C-5.06375702 11.79522136 -2.74390859 5.89174281 0 0 Z " fill="#4AA194" transform="translate(279,510)"/>
<path d="M0 0 C0.66 0 1.32 0 2 0 C0.56691865 3.95906817 -1.33141949 7.28718181 -3.625 10.8125 C-4.57246094 12.27623047 -4.57246094 12.27623047 -5.5390625 13.76953125 C-6.02117187 14.50558594 -6.50328125 15.24164063 -7 16 C-7.33 14.68 -7.66 13.36 -8 12 C-7.34 12 -6.68 12 -6 12 C-6 11.01 -6 10.02 -6 9 C-5.34 9 -4.68 9 -4 9 C-3.67 7.35 -3.34 5.7 -3 4 C-2.34 4 -1.68 4 -1 4 C-0.67 2.68 -0.34 1.36 0 0 Z " fill="#DBF9F7" transform="translate(448,196)"/>
<path d="M0 0 C0.99 0 1.98 0 3 0 C3.86762314 2.24561282 4.7192103 4.49526255 5.5625 6.75 C5.80935547 7.38421875 6.05621094 8.0184375 6.31054688 8.671875 C7.72473562 12.49616006 8.02277665 13.90889339 7 18 C4.69 12.06 2.38 6.12 0 0 Z " fill="#DEFBF9" transform="translate(695,584)"/>
<path d="M0 0 C0.66 0.33 1.32 0.66 2 1 C-0.64 5.95 -3.28 10.9 -6 16 C-7.19156292 11.23374833 -6.3415946 10.12120649 -4 6 C-3.34 6 -2.68 6 -2 6 C-1.855625 5.195625 -1.71125 4.39125 -1.5625 3.5625 C-1 1 -1 1 0 0 Z " fill="#D8F8F5" transform="translate(363,341)"/>
<path d="M0 0 C0.66 0 1.32 0 2 0 C3.76171875 2.484375 3.76171875 2.484375 5.6875 5.75 C6.33074219 6.81734375 6.97398437 7.8846875 7.63671875 8.984375 C9 12 9 12 8.70703125 14.390625 C8.47371094 14.92171875 8.24039063 15.4528125 8 16 C6.66141476 13.71125827 5.32898986 11.41930344 4 9.125 C3.6184375 8.47402344 3.236875 7.82304687 2.84375 7.15234375 C0 2.2265625 0 2.2265625 0 0 Z " fill="#D9F9F6" transform="translate(597,391)"/>
<path d="M0 0 C1.86328125 0.265625 1.86328125 0.265625 4 1 C6.77549885 4.77115399 8.42139186 9.37113484 9 14 C6.33942369 11.58710497 4.63367391 8.95975383 2.8125 5.875 C2.01779297 4.54082031 2.01779297 4.54082031 1.20703125 3.1796875 C0 1 0 1 0 0 Z " fill="#DBFAF7" transform="translate(519,264)"/>
<path d="M0 0 C4.28115853 4.77513836 7.03759841 10.36156231 10 16 C9.34 16 8.68 16 8 16 C8 15.34 8 14.68 8 14 C7.34 14 6.68 14 6 14 C5.67 12.68 5.34 11.36 5 10 C4.34 10 3.68 10 3 10 C3 8.68 3 7.36 3 6 C2.34 6 1.68 6 1 6 C0.67 4.02 0.34 2.04 0 0 Z " fill="#4AA193" transform="translate(494,225)"/>
<path d="M0 0 C0.33 0 0.66 0 1 0 C0.38029501 9.80843419 0.38029501 9.80843419 -3 14 C-3.66 14 -4.32 14 -5 14 C-3.45730076 9.27934033 -1.92205381 4.58335908 0 0 Z " fill="#D4F5F2" transform="translate(714,821)"/>
<path d="M0 0 C4.02550319 1.3418344 4.88285636 3.4227573 7 7 C7 7.66 7 8.32 7 9 C7.66 9 8.32 9 9 9 C9 9.66 9 10.32 9 11 C9.66 11 10.32 11 11 11 C11.33 12.65 11.66 14.3 12 16 C7.1693267 11.60847882 3.52339133 6.48308737 0 1 C0 0.67 0 0.34 0 0 Z " fill="#459B8E" transform="translate(344,810)"/>
<path d="M0 0 C0.66 0.99 1.32 1.98 2 3 C1.34 3 0.68 3 0 3 C-0.03738281 3.67546875 -0.07476562 4.3509375 -0.11328125 5.046875 C-0.17902344 5.93890625 -0.24476563 6.8309375 -0.3125 7.75 C-0.37050781 8.63171875 -0.42851562 9.5134375 -0.48828125 10.421875 C-1.0641181 13.32303774 -2.07596148 14.79225607 -4 17 C-5.3274855 13.01754349 -3.99907829 10.55210457 -2.5625 6.8125 C-2.19801758 5.83120117 -2.19801758 5.83120117 -1.82617188 4.83007812 C-1.2256707 3.21696714 -0.61390797 1.6080565 0 0 Z " fill="#49A194" transform="translate(244,596)"/>
<path d="M0 0 C1.26175847 3.78527542 0.72938114 4.46262949 -1 8 C-4.14760563 13.60732394 -4.14760563 13.60732394 -6 16 C-6.66 16 -7.32 16 -8 16 C-6.57250019 12.20950293 -4.83763458 8.72877544 -2.875 5.1875 C-2.33617187 4.21167969 -1.79734375 3.23585938 -1.2421875 2.23046875 C-0.83226562 1.49441406 -0.42234375 0.75835937 0 0 Z " fill="#459C90" transform="translate(381,312)"/>
<path d="M0 0 C3.6578722 4.19977919 6.79365864 8.87201939 9 14 C8.67 14.66 8.34 15.32 8 16 C7.67 15.01 7.34 14.02 7 13 C6.34 13 5.68 13 5 13 C4.54625 12.05125 4.0925 11.1025 3.625 10.125 C2.19761746 6.99686321 2.19761746 6.99686321 0 5 C-0.125 2.375 -0.125 2.375 0 0 Z " fill="#499D90" transform="translate(476,195)"/>
<path d="M0 0 C0 0.66 0 1.32 0 2 C-1.70129086 2.84761822 -3.41143084 3.6774868 -5.125 4.5 C-6.55199219 5.19609375 -6.55199219 5.19609375 -8.0078125 5.90625 C-11.21196631 7.07748116 -13.61717313 7.20076124 -17 7 C-14.03171001 5.02114001 -11.22552946 3.74135003 -7.9375 2.375 C-6.87402344 1.92898438 -5.81054688 1.48296875 -4.71484375 1.0234375 C-2 0 -2 0 0 0 Z " fill="#D3F6F3" transform="translate(582,964)"/>
<path d="M0 0 C0.66 0.33 1.32 0.66 2 1 C-1.63 4.63 -5.26 8.26 -9 12 C-9.33 11.01 -9.66 10.02 -10 9 C-7.85177953 5.7776693 -6.2725249 4.91562433 -3 3 C-1.24850835 1.41754725 -1.24850835 1.41754725 0 0 Z " fill="#3F988A" transform="translate(658,906)"/>
<path d="M0 0 C6.00477279 0.64916463 11.400781 2.85795003 17 5 C16.67 5.66 16.34 6.32 16 7 C10.53262809 5.25192871 5.24175152 3.34205919 0 1 C0 0.67 0 0.34 0 0 Z " fill="#4EA094" transform="translate(397,858)"/>
<path d="M0 0 C1.45655759 4.44787719 0.03500783 6.85461367 -2 11 C-2.99 12.485 -2.99 12.485 -4 14 C-4.66 14 -5.32 14 -6 14 C-4.50829734 9.0276578 -2.39542583 4.58154261 0 0 Z " fill="#D5F6F4" transform="translate(705,841)"/>
<path d="M0 0 C0.33 0 0.66 0 1 0 C1.38855926 2.4568901 1.76130088 4.91441833 2.125 7.375 C2.23714844 8.07367187 2.34929687 8.77234375 2.46484375 9.4921875 C2.72816466 11.31787914 2.8718116 13.1598762 3 15 C2.34 15.66 1.68 16.32 1 17 C0.63724344 14.73052303 0.28506814 12.45935265 -0.0625 10.1875 C-0.25972656 8.92292969 -0.45695313 7.65835938 -0.66015625 6.35546875 C-1 3 -1 3 0 0 Z " fill="#429D90" transform="translate(219,766)"/>
<path d="M0 0 C3.05001831 3.66002197 7 9.07851471 7 14 C6.01 13.67 5.02 13.34 4 13 C4 11.68 4 10.36 4 9 C3.34 9 2.68 9 2 9 C0.14223235 5.86501708 -0.20140476 3.62528568 0 0 Z " fill="#439D91" transform="translate(660,509)"/>
<path d="M0 0 C0.99 0 1.98 0 3 0 C3.86883706 1.57533086 4.71959068 3.16064509 5.5625 4.75 C6.03816406 5.63171875 6.51382813 6.5134375 7.00390625 7.421875 C8 10 8 10 7 14 C4.69 9.38 2.38 4.76 0 0 Z " fill="#D8F8F6" transform="translate(629,449)"/>
<path d="M0 0 C4.38894929 3.26720791 8.75259665 6.54898478 13 10 C11.68 10.33 10.36 10.66 9 11 C9 10.01 9 9.02 9 8 C6.525 7.01 6.525 7.01 4 6 C4 5.34 4 4.68 4 4 C2.68 3.34 1.36 2.68 0 2 C0 1.34 0 0.68 0 0 Z " fill="#3E998C" transform="translate(340,877)"/>
<path d="M0 0 C4.62 0 9.24 0 14 0 C9.55775026 2.22112487 6.88356183 2.60616437 2 3 C1.34 2.67 0.68 2.34 0 2 C0 1.34 0 0.68 0 0 Z " fill="#46A093" transform="translate(515,981)"/>
<path d="M0 0 C0.33 0.66 0.66 1.32 1 2 C-0.97583004 7.23013834 -3.66637965 9.72570907 -8 13 C-5.76028993 8.34829446 -3.17089436 4.07686417 0 0 Z " fill="#E3FBF9" transform="translate(667,898)"/>
<path d="M0 0 C0.66 0 1.32 0 2 0 C1.57228451 1.41965142 1.13234457 2.8356224 0.6875 4.25 C0.44386719 5.03890625 0.20023437 5.8278125 -0.05078125 6.640625 C-1.05108323 9.12697232 -2.30857609 10.9342834 -4 13 C-3.71812064 11.20676747 -3.4241719 9.41542874 -3.125 7.625 C-2.96257812 6.62726562 -2.80015625 5.62953125 -2.6328125 4.6015625 C-2 2 -2 2 0 0 Z " fill="#D9F9F7" transform="translate(273,520)"/>
<path d="M0 0 C0.99 0 1.98 0 3 0 C1.68938409 4.23429756 0.05643741 8.07407404 -2 12 C-2.33 12 -2.66 12 -3 12 C-2.49202991 7.6822542 -1.80317221 3.96697886 0 0 Z " fill="#D9F8F6" transform="translate(299,462)"/>
<path d="M0 0 C3.46124816 1.15374939 3.88312583 1.87701971 5.75 4.875 C6.19859375 5.57367188 6.6471875 6.27234375 7.109375 6.9921875 C8 9 8 9 7 12 C3.6497537 8.18765077 1.83025211 4.66714289 0 0 Z " fill="#D9FAF7" transform="translate(577,358)"/>
<path d="M0 0 C7.23549488 0.68259386 7.23549488 0.68259386 10 4 C10.99 4.33 11.98 4.66 13 5 C13.33 5.99 13.66 6.98 14 8 C9.02790438 6.23570801 4.56561939 3.6060834 0 1 C0 0.67 0 0.34 0 0 Z " fill="#4EA194" transform="translate(383,850)"/>
<path d="M0 0 C1.90318884 2.85478326 2.4619099 4.41941308 3.125 7.6875 C3.29257812 8.49574219 3.46015625 9.30398438 3.6328125 10.13671875 C3.75398437 10.75160156 3.87515625 11.36648438 4 12 C2.68 11.67 1.36 11.34 0 11 C0 7.37 0 3.74 0 0 Z " fill="#4CA498" transform="translate(717,645)"/>
<path d="M0 0 C3 1 3 1 4.6875 4.25 C5.83944321 7.54126631 6.31025348 9.5872117 6 13 C4.43926745 10.65890118 3.13626133 8.43666597 1.875 5.9375 C1.34519531 4.89916016 1.34519531 4.89916016 0.8046875 3.83984375 C0 2 0 2 0 0 Z " fill="#DAF9F7" transform="translate(675,538)"/>
<path d="M0 0 C3.39460785 1.37928277 4.72525168 2.64656429 6.3125 5.9375 C6.65925781 6.62714844 7.00601563 7.31679688 7.36328125 8.02734375 C8 10 8 10 7 13 C5.83072457 11.02237345 4.66464427 9.04285742 3.5 7.0625 C2.8503125 5.96035156 2.200625 4.85820312 1.53125 3.72265625 C0 1 0 1 0 0 Z " fill="#D5F8F5" transform="translate(555,322)"/>
<path d="M0 0 C1.6260287 0.06000106 3.25101549 0.1487885 4.875 0.25 C6.23238281 0.31960938 6.23238281 0.31960938 7.6171875 0.390625 C10 1 10 1 11.3203125 3.046875 C11.54460937 3.69140625 11.76890625 4.3359375 12 5 C10.37276701 4.54965877 8.74826336 4.08944646 7.125 3.625 C5.76761719 3.24214844 5.76761719 3.24214844 4.3828125 2.8515625 C2 2 2 2 0 0 Z " fill="#4EA397" transform="translate(376,968)"/>
<path d="M0 0 C0.53625 0.2475 1.0725 0.495 1.625 0.75 C0.635 1.08 -0.355 1.41 -1.375 1.75 C-1.973125 2.41 -2.57125 3.07 -3.1875 3.75 C-5.87939953 6.21116528 -7.80215954 6.42519632 -11.375 6.75 C-8.40130096 3.44588996 -4.65750725 -0.49026392 0 0 Z " fill="#3B998D" transform="translate(583.375,960.25)"/>
<path d="M0 0 C3.82669043 3.42388092 5.72278474 6.00724943 7 11 C6.34 11 5.68 11 5 11 C4.67 9.68 4.34 8.36 4 7 C3.34 7 2.68 7 2 7 C0.5393715 4.35261084 0 3.10551666 0 0 Z " fill="#DAF9F7" transform="translate(459,878)"/>
<path d="M0 0 C2.35119399 3.52679099 2.21443452 5.02879485 2.125 9.1875 C2.10695313 10.27417969 2.08890625 11.36085938 2.0703125 12.48046875 C2.03550781 13.72763672 2.03550781 13.72763672 2 15 C-0.31123765 10.69826788 -1.44150494 6.45981322 -0.5625 1.5625 C-0.376875 1.046875 -0.19125 0.53125 0 0 Z " fill="#3EA091" transform="translate(724,671)"/>
<path d="M0 0 C3.09592835 3.5087188 4.74194623 6.49197399 6 11 C4 11 4 11 2.375 9.8125 C0.57850533 7.44439338 0.76478155 5.90102749 1 3 C0.34 3 -0.32 3 -1 3 C-0.67 2.01 -0.34 1.02 0 0 Z " fill="#49A294" transform="translate(616,426)"/>
<path d="M0 0 C1.27310312 0.93441535 2.543388 1.87267111 3.8125 2.8125 C4.52019531 3.33457031 5.22789062 3.85664062 5.95703125 4.39453125 C7.78531393 5.83128877 9.39896688 7.31815763 11 9 C8.02230154 8.8615024 5.78173508 8.68881566 3.48828125 6.66796875 C0 2.55999284 0 2.55999284 0 0 Z " fill="#D6F8F5" transform="translate(302,922)"/>
<path d="M0 0 C3.1894996 4.7842494 4.26863974 8.22424557 4 14 C0.62808288 8.94212432 -0.23926553 6.22090367 0 0 Z " fill="#DAFAF6" transform="translate(289,801)"/>
<path d="M0 0 C0.33 0 0.66 0 1 0 C1.33820166 1.5823006 1.67035939 3.16589375 2 4.75 C2.185625 5.63171875 2.37125 6.5134375 2.5625 7.421875 C3 10 3 10 3 14 C2.34 14 1.68 14 1 14 C-0.04976964 10.85069107 -0.10131595 8.61185544 -0.0625 5.3125 C-0.05347656 4.31863281 -0.04445313 3.32476563 -0.03515625 2.30078125 C-0.02355469 1.54152344 -0.01195312 0.78226563 0 0 Z " fill="#C8EFEC" transform="translate(323,755)"/>
<path d="M0 0 C0.33 0 0.66 0 1 0 C0.85831863 1.43791516 0.71148957 2.8753237 0.5625 4.3125 C0.48128906 5.11300781 0.40007812 5.91351562 0.31640625 6.73828125 C0 9 0 9 -1 12 C-1.99 12.33 -2.98 12.66 -4 13 C-3.52140759 11.39566191 -3.04210442 9.79153584 -2.5625 8.1875 C-2.29566406 7.29417969 -2.02882812 6.40085937 -1.75390625 5.48046875 C-1.19612127 3.64526945 -0.60655425 1.81966274 0 0 Z " fill="#469C8F" transform="translate(249,582)"/>
<path d="M0 0 C3.29078593 2.79716804 5.06305458 6.19528578 7 10 C6.67 10.66 6.34 11.32 6 12 C3.15203218 10.57601609 2.43845537 8.8143692 1 6 C0.3125 2.6875 0.3125 2.6875 0 0 Z " fill="#4CA194" transform="translate(592,385)"/>
<path d="M0 0 C0.33 0 0.66 0 1 0 C1.33663062 3.70293685 1.47736015 5.39534381 -0.875 8.375 C-3 10 -3 10 -5 10 C-3.66654496 6.40992874 -2.1056769 3.20429093 0 0 Z " fill="#449E91" transform="translate(429,230)"/>
<path d="M0 0 C0.66 0.33 1.32 0.66 2 1 C0.75 3 0.75 3 -1 5 C-2.32 5 -3.64 5 -5 5 C-5 5.66 -5 6.32 -5 7 C-6.32 6.67 -7.64 6.34 -9 6 C-6.03 4.02 -3.06 2.04 0 0 Z " fill="#D6F7F4" transform="translate(615,944)"/>
<path d="M0 0 C-1.50223584 4.20626034 -4.28550034 5.73900021 -8 8 C-8 7.01 -8 6.02 -8 5 C-7.34 5 -6.68 5 -6 5 C-5.71125 4.360625 -5.4225 3.72125 -5.125 3.0625 C-3.72314735 0.49243681 -2.91896073 0 0 0 Z " fill="#419A8D" transform="translate(647,918)"/>
<path d="M0 0 C0.33 0 0.66 0 1 0 C2.09845718 4.32059823 3.17812739 8.61667943 4 13 C2.68 12.67 1.36 12.34 0 12 C0 8.04 0 4.08 0 0 Z " fill="#2B9989" transform="translate(275,765)"/>
<path d="M0 0 C3 1 3 1 4.75 3.8125 C6.05483179 7.13982105 6.02866653 7.79584277 5 11 C4.16151196 9.54462432 3.32936066 8.08559627 2.5 6.625 C1.80390625 5.40683594 1.80390625 5.40683594 1.09375 4.1640625 C0 2 0 2 0 0 Z " fill="#D6F8F5" transform="translate(641,470)"/>
<path d="M0 0 C4 1 4 1 5.8125 3.8125 C7 7 7 7 6 11 C4.02 7.37 2.04 3.74 0 0 Z " fill="#DAFAF7" transform="translate(542,301)"/>
<path d="M0 0 C0.99 0 1.98 0 3 0 C6.22265625 5.078125 6.22265625 5.078125 7 7 C6.67 8.32 6.34 9.64 6 11 C4.02 7.37 2.04 3.74 0 0 Z " fill="#DAFBF8" transform="translate(492,221)"/>
<path d="M0 0 C0 3.77910478 -0.99703962 4.46106101 -3.5 7.1875 C-4.1496875 7.90292969 -4.799375 8.61835937 -5.46875 9.35546875 C-5.9740625 9.89816406 -6.479375 10.44085937 -7 11 C-7.66 10.67 -8.32 10.34 -9 10 C-6.03 6.7 -3.06 3.4 0 0 Z " fill="#E4FDFB" transform="translate(649,917)"/>
<path d="M0 0 C0.66 0 1.32 0 2 0 C2.268125 0.804375 2.53625 1.60875 2.8125 2.4375 C3.204375 3.283125 3.59625 4.12875 4 5 C4.99 5.33 5.98 5.66 7 6 C7 7.65 7 9.3 7 11 C4.04250209 7.53258866 1.92151848 4.13126473 0 0 Z " fill="#469A8E" transform="translate(253,862)"/>
<path d="M0 0 C2.10633718 1.70828921 2.93801608 2.52148416 3.29296875 5.26171875 C3.25816406 6.06222656 3.22335938 6.86273437 3.1875 7.6875 C3.16042969 8.49574219 3.13335937 9.30398438 3.10546875 10.13671875 C3.07066406 10.75160156 3.03585938 11.36648438 3 12 C0.97649676 8.96474514 0.67875982 7.80573798 0.375 4.3125 C0.30023438 3.50425781 0.22546875 2.69601562 0.1484375 1.86328125 C0.09945312 1.24839844 0.05046875 0.63351562 0 0 Z " fill="#37978A" transform="translate(222,785)"/>
<path d="M0 0 C0.66 0 1.32 0 2 0 C2 1.32 2 2.64 2 4 C2.66 4 3.32 4 4 4 C4 6.97 4 9.94 4 13 C2.4005386 9.80107719 1.57404764 7.64537424 0.875 4.25 C0.70742188 3.45078125 0.53984375 2.6515625 0.3671875 1.828125 C0.24601563 1.22484375 0.12484375 0.6215625 0 0 Z " fill="#D2F6F2" transform="translate(723,665)"/>
<path d="M0 0 C0.66 0 1.32 0 2 0 C0.45730076 4.72065967 -1.07794619 9.41664092 -3 14 C-4.1750709 10.47478731 -3.72717795 9.34332144 -2.625 5.875 C-2.34914062 4.98554687 -2.07328125 4.09609375 -1.7890625 3.1796875 C-1 1 -1 1 0 0 Z " fill="#D3F8F5" transform="translate(255,563)"/>
<path d="M0 0 C0.99 0 1.98 0 3 0 C5.25 2.8125 5.25 2.8125 7 6 C6.67 6.99 6.34 7.98 6 9 C3.59927045 6.11912454 1.52708963 3.43595166 0 0 Z " fill="#D5F7F4" transform="translate(528,279)"/>
<path d="M0 0 C0.66 0.99 1.32 1.98 2 3 C1.01 3.33 0.02 3.66 -1 4 C-2.21869929 6.50447516 -2.21869929 6.50447516 -3 9 C-3.66 9 -4.32 9 -5 9 C-3.7508258 5.54074837 -2.32472205 2.85306797 0 0 Z " fill="#3D998B" transform="translate(414,256)"/>
<path d="M0 0 C1.14926266 0.95421808 2.29430541 1.91352045 3.4375 2.875 C4.07558594 3.40867187 4.71367187 3.94234375 5.37109375 4.4921875 C7 6 7 6 8 8 C6.35 7.67 4.7 7.34 3 7 C3 6.01 3 5.02 3 4 C2.01 3.67 1.02 3.34 0 3 C0 2.01 0 1.02 0 0 Z " fill="#CCF1EE" transform="translate(288,908)"/>
<path d="M0 0 C0.66 0 1.32 0 2 0 C2.33 0.99 2.66 1.98 3 3 C0.03 5.475 0.03 5.475 -3 8 C-2.67 6.35 -2.34 4.7 -2 3 C-1.34 3 -0.68 3 0 3 C0 2.01 0 1.02 0 0 Z " fill="#45A194" transform="translate(663,898)"/>
<path d="M0 0 C0.33 0 0.66 0 1 0 C1.28571429 7.42857143 1.28571429 7.42857143 -1 11 C-1.66 11 -2.32 11 -3 11 C-1.125 3.375 -1.125 3.375 0 0 Z " fill="#D3F4F2" transform="translate(718,810)"/>
<path d="M0 0 C0.33 0 0.66 0 1 0 C1 3.3 1 6.6 1 10 C0.01 10 -0.98 10 -2 10 C-1.46274105 6.62294375 -0.88935377 3.303314 0 0 Z " fill="#D7F6F4" transform="translate(724,791)"/>
<path d="M0 0 C2.45823172 3.68734758 3.01242616 6.69699971 4 11 C2.68 10.67 1.36 10.34 0 10 C0 6.7 0 3.4 0 0 Z " fill="#4BA396" transform="translate(710,624)"/>
<path d="M0 0 C3 1 3 1 4.75 3.8125 C6.05483179 7.13982105 6.02866653 7.79584277 5 11 C4.16151196 9.54462432 3.32936066 8.08559627 2.5 6.625 C1.80390625 5.40683594 1.80390625 5.40683594 1.09375 4.1640625 C0 2 0 2 0 0 Z " fill="#D4F8F5" transform="translate(609,412)"/>
<path d="M0 0 C2.74277578 3.19990508 4.6302836 6.00499382 6 10 C3.5625 8.9375 3.5625 8.9375 1 7 C0.1875 3.3125 0.1875 3.3125 0 0 Z " fill="#48A195" transform="translate(572,351)"/>
<path d="M0 0 C3 1 3 1 4.75 3.3125 C6.14972335 6.32190521 5.95287489 6.98041673 5 10 C4.16121545 8.71186658 3.32913217 7.41936744 2.5 6.125 C2.0359375 5.40570313 1.571875 4.68640625 1.09375 3.9453125 C0 2 0 2 0 0 Z " fill="#D7F8F5" transform="translate(465,175)"/>
<path d="M0 0 C1.95582488 2.93373731 3.56224304 5.78216298 5 9 C4.67 9.66 4.34 10.32 4 11 C3.34 11 2.68 11 2 11 C0.80712589 7.12315913 0 4.08378077 0 0 Z " fill="#49A094" transform="translate(674,537)"/>
<path d="M0 0 C1 2 1 2 0.25 5 C-1 8 -1 8 -4 10 C-3.43454163 6.04179141 -2.19097652 3.3340947 0 0 Z " fill="#349385" transform="translate(351,367)"/>
<path d="M0 0 C2.96865509 2.54456151 4.3619751 5.48994665 6 9 C5.01 9.33 4.02 9.66 3 10 C2.67 8.02 2.34 6.04 2 4 C1.34 4 0.68 4 0 4 C0 2.68 0 1.36 0 0 Z " fill="#47A293" transform="translate(518,264)"/>
<path d="M0 0 C4.27786748 0.49360009 7.09567131 1.04783565 11 3 C7.7 3 4.4 3 1 3 C0.67 2.01 0.34 1.02 0 0 Z " fill="#E0FCFA" transform="translate(401,978)"/>
<path d="M0 0 C2.97 0 5.94 0 9 0 C9 0.66 9 1.32 9 2 C9.66 2.33 10.32 2.66 11 3 C9.741875 2.87625 8.48375 2.7525 7.1875 2.625 C6.12595703 2.52058594 6.12595703 2.52058594 5.04296875 2.4140625 C3 2 3 2 0 0 Z " fill="#C0EDE8" transform="translate(405,912)"/>
<path d="M0 0 C0.33 0 0.66 0 1 0 C1.1875 3.375 1.1875 3.375 1 7 C0.01 7.66 -0.98 8.32 -2 9 C-1.125 1.125 -1.125 1.125 0 0 Z " fill="#3E988C" transform="translate(234,627)"/>
<path d="M0 0 C0.99 0 1.98 0 3 0 C4.75 2.25 4.75 2.25 6 5 C5.67 6.32 5.34 7.64 5 9 C3.35 6.03 1.7 3.06 0 0 Z " fill="#D6F8F5" transform="translate(568,344)"/>
<path d="M0 0 C0.66 0.99 1.32 1.98 2 3 C0.02 5.31 -1.96 7.62 -4 10 C-4 5.75354935 -2.18249194 3.61475228 0 0 Z " fill="#4DA195" transform="translate(423,240)"/>
<path d="M0 0 C0.33 0 0.66 0 1 0 C1.1875 2.375 1.1875 2.375 1 5 C0.01 5.66 -0.98 6.32 -2 7 C-1.125 1.125 -1.125 1.125 0 0 Z M-5 8 C-4.01 8.495 -4.01 8.495 -3 9 C-3.99 9.495 -3.99 9.495 -5 10 C-5 9.34 -5 8.68 -5 8 Z " fill="#E1F9F7" transform="translate(677,886)"/>
<path d="M0 0 C2.96404505 2.80804268 5.44499019 5.18315774 7 9 C6.34 9 5.68 9 5 9 C5 8.34 5 7.68 5 7 C4.360625 6.773125 3.72125 6.54625 3.0625 6.3125 C1 5 1 5 0.25 2.375 C0.1675 1.59125 0.085 0.8075 0 0 Z " fill="#D6F9F6" transform="translate(261,876)"/>
<path d="M0 0 C0.33 0.66 0.66 1.32 1 2 C0.22265625 3.9453125 0.22265625 3.9453125 -0.9375 6.125 C-1.31777344 6.84945312 -1.69804688 7.57390625 -2.08984375 8.3203125 C-2.39019531 8.87460937 -2.69054687 9.42890625 -3 10 C-3.66 10 -4.32 10 -5 10 C-3.66511872 6.40608886 -2.03977277 3.24509304 0 0 Z " fill="#D1F5F1" transform="translate(698,855)"/>
<path d="M0 0 C2.95183101 2.95183101 3.08663988 5.95511947 4 10 C2 8.375 2 8.375 0 6 C-0.25 2.75 -0.25 2.75 0 0 Z " fill="#D6F8F5" transform="translate(225,803)"/>
<path d="M0 0 C0.33 0 0.66 0 1 0 C1.33 2.97 1.66 5.94 2 9 C1.34 9 0.68 9 0 9 C-1.125 2.25 -1.125 2.25 0 0 Z " fill="#239484" transform="translate(239,612)"/>
<path d="M0 0 C1.13643966 3.40931897 0.86747764 4.00335456 -0.4375 7.1875 C-0.86869141 8.26064453 -0.86869141 8.26064453 -1.30859375 9.35546875 C-1.53675781 9.89816406 -1.76492187 10.44085937 -2 11 C-2.33 11 -2.66 11 -3 11 C-3.32613618 6.32538149 -2.70582788 3.83325617 0 0 Z " fill="#D3F9F5" transform="translate(248,582)"/>
<path d="M0 0 C1.04449911 3.13349732 0.93423645 3.98968256 0 7 C-1.32 7.33 -2.64 7.66 -4 8 C-2.68 5.36 -1.36 2.72 0 0 Z " fill="#469E91" transform="translate(386,303)"/>
<path d="M0 0 C3 1 3 1 4.75 3.375 C6 6 6 6 5 9 C4.16396622 7.68921847 3.3312426 6.37632511 2.5 5.0625 C2.0359375 4.33160156 1.571875 3.60070312 1.09375 2.84765625 C0 1 0 1 0 0 Z " fill="#DBFBF8" transform="translate(499,232)"/>
<path d="M0 0 C2 2 2 2 2 6 C2.66 6.33 3.32 6.66 4 7 C3.01 7 2.02 7 1 7 C0.01 5.02 -0.98 3.04 -2 1 C-1.34 0.67 -0.68 0.34 0 0 Z " fill="#479F92" transform="translate(262,872)"/>
<path d="M0 0 C0.66 0 1.32 0 2 0 C1.46930939 3.82097239 0.50298434 6.06171403 -2 9 C-2.20140476 5.37471432 -1.85776765 3.13498292 0 0 Z " fill="#D5F7F4" transform="translate(291,480)"/>
<path d="M0 0 C1 3 1 3 -0.3125 5.6875 C-0.869375 6.450625 -1.42625 7.21375 -2 8 C-2.66 8 -3.32 8 -4 8 C-3.67 6.35 -3.34 4.7 -3 3 C-2.34 3 -1.68 3 -1 3 C-0.67 2.01 -0.34 1.02 0 0 Z " fill="#D5F9F6" transform="translate(326,411)"/>
<path d="M0 0 C0.99 0 1.98 0 3 0 C4.0625 1.75 4.0625 1.75 5 4 C4.67 5.32 4.34 6.64 4 8 C2.68 5.36 1.36 2.72 0 0 Z " fill="#DAFAF8" transform="translate(563,335)"/>
</svg>
